<svg fill="#000000" xmlns="http://www.w3.org/2000/svg"  viewBox="0 0 128 128" width="64px" height="64px"><path d="M 63.710938 6.0429688 C 48.814941 6.1220703 34.775391 11.693359 23.900391 22.099609 C 12.400391 33.099609 6 48 6 64 C 6 76.7 9.9992188 88.800391 17.699219 98.900391 C 18.699219 100.20039 20.600391 100.5 21.900391 99.5 C 23.200391 98.5 23.5 96.600781 22.5 95.300781 C 15.6 86.200781 12 75.4 12 64 C 12 49.7 17.699609 36.300391 28.099609 26.400391 C 38.499609 16.500391 52.1 11.399609 66.5 12.099609 C 93.2 13.299609 114.9 35.200391 116 61.900391 C 116.9 83.800391 103.89961 104.00078 83.599609 112.30078 C 82.099609 112.90078 81.300391 114.69922 81.900391 116.19922 C 82.400391 117.39922 83.499219 118.09961 84.699219 118.09961 C 85.099219 118.09961 85.500781 118.00039 85.800781 117.90039 C 108.40078 108.60039 122.9 85.999609 122 61.599609 C 120.7 31.799609 96.499219 7.3996094 66.699219 6.0996094 C 65.699219 6.0558594 64.704004 6.0376953 63.710938 6.0429688 z M 64 30 A 9 9 0 0 0 64 48 A 9 9 0 0 0 64 30 z M 64 59 C 59 59 55 63 55 68 L 55 92 C 55 97 59 101 64 101 C 69 101 73 97 73 92 L 73 68 C 73 63 69 59 64 59 z M 33.119141 106.58789 C 32.162109 106.5791 31.224609 107.02539 30.599609 107.90039 C 29.699609 109.30039 30.000391 111.09961 31.400391 112.09961 C 34.600391 114.09961 37.900781 115.90039 41.300781 117.40039 C 41.700781 117.60039 42.1 117.59961 42.5 117.59961 C 43.7 117.59961 44.800781 116.90078 45.300781 115.80078 C 45.900781 114.30078 45.199219 112.50039 43.699219 111.90039 C 40.599219 110.60039 37.600781 108.99961 34.800781 107.09961 C 34.275781 106.76211 33.693359 106.59316 33.119141 106.58789 z"/></svg>